<?xml version="1.0" encoding="iso-8859-1"?>
<!-- Generator: Adobe Illustrator 19.0.0, SVG Export Plug-In . SVG Version: 6.00 Build 0)  -->
<svg version="1.1" id="Layer_1" xmlns="http://www.w3.org/2000/svg" xmlns:xlink="http://www.w3.org/1999/xlink" x="0px" y="0px"
	 viewBox="0 0 291.32 291.32" style="enable-background:new 0 0 291.32 291.32;" xml:space="preserve">
<g>
	<path style="fill:#EA4C89;" d="M145.66,0.001C65.21,0.001,0,65.22,0,145.661S65.21,291.32,145.66,291.32
		s145.66-65.219,145.66-145.66S226.109,0.001,145.66,0.001z M241.239,70.5c15.658,19.883,25.245,44.717,26,71.746
		c-32.682-5.726-60.867-5.899-85.22-2.039c-3.086-7.083-6.263-13.965-9.522-20.629C198.616,108.836,222.04,93.168,241.239,70.5z
		 M224.479,53.094c-17.151,20.82-38.682,35.149-63.043,44.9c-15.595-28.895-31.635-52.975-44.453-70.554
		c9.204-2.249,18.79-3.45,28.668-3.45C175.72,23.98,203.231,34.968,224.479,53.094z M93.359,35.824
		c12.39,16.541,28.877,40.502,45,69.88c-34.175,9.386-72.402,11.917-111.093,12.026C35.805,81.534,60.512,51.528,93.359,35.824z
		 M23.997,145.65l0.1-3.933h0.655c43.352,0,86.394-2.84,124.985-14.211c2.877,5.854,5.708,11.862,8.476,18.044
		c-50.771,14.885-82.425,48.295-104.119,80.085C35.377,204.252,23.997,176.258,23.997,145.65z M71.828,242.26
		c20.538-30.934,49.16-61.541,95.735-74.396c10.879,27.876,19.755,58.3,24.453,90.254c-14.293,5.936-29.942,9.213-46.347,9.213
		C117.911,267.331,92.312,257.982,71.828,242.26z M214.393,245.993c-4.98-29.196-13.137-57.044-22.96-82.862
		c21.285-2.704,45.755-2.048,74.122,3.168C259.884,199.271,240.93,227.758,214.393,245.993z"/>
</g>
<g>
</g>
<g>
</g>
<g>
</g>
<g>
</g>
<g>
</g>
<g>
</g>
<g>
</g>
<g>
</g>
<g>
</g>
<g>
</g>
<g>
</g>
<g>
</g>
<g>
</g>
<g>
</g>
<g>
</g>
</svg>
