<?xml version="1.0" encoding="iso-8859-1"?>
<!-- Generator: Adobe Illustrator 19.0.0, SVG Export Plug-In . SVG Version: 6.00 Build 0)  -->
<svg version="1.1" id="Layer_1" xmlns="http://www.w3.org/2000/svg" xmlns:xlink="http://www.w3.org/1999/xlink" x="0px" y="0px"
	 viewBox="0 0 469.987 469.987" style="enable-background:new 0 0 469.987 469.987;" xml:space="preserve">
<g>
	<g id="XMLID_21_">
		<g>
			<path style="fill:#ED4989;" d="M264.512,264.524L394.11,394.122c-59.696,59.695-144.597,78.797-220.396,57.4
				C182.317,378.819,215.412,313.626,264.512,264.524z"/>
			<path style="fill:#ED4989;" d="M264.512,264.524c-49.101,49.102-82.195,114.295-90.799,186.998
				c-35.8-10.107-69.598-29.197-97.801-57.4c-30.194-30.205-49.999-66.795-59.491-105.496
				c70.692-9.502,133.992-42.207,181.989-90.203L264.512,264.524z"/>
			<path style="fill:#ED4989;" d="M75.913,75.925l122.498,122.498c-47.997,47.996-111.297,80.701-181.989,90.203
				C-1.585,214.823,18.218,133.624,75.913,75.925z"/>
			<path style="fill:#ED4989;" d="M198.411,198.423L75.913,75.925c57.694-57.699,138.903-77.498,212.701-59.496
				C279.014,87.126,246.408,150.425,198.411,198.423z"/>
			<path style="fill:#ED4989;" d="M288.614,16.429c38.593,9.498,75.291,29.297,105.496,59.496
				c28.202,28.203,47.294,62.002,57.4,97.801c-72.703,8.701-137.897,41.699-186.998,90.799l-66.102-66.102
				C246.408,150.425,279.014,87.126,288.614,16.429z"/>
			<path style="fill:#ED4989;" d="M451.51,173.726c21.396,75.896,2.295,160.701-57.4,220.396L264.512,264.524
				C313.613,215.425,378.807,182.427,451.51,173.726z"/>
		</g>
		<path style="fill:#231F20;" d="M461.135,171.012c0-0.002-0.001-0.003-0.001-0.003l0,0c-10.86-38.468-31.592-73.792-59.954-102.156
			c-30.396-30.391-68.495-51.876-110.177-62.135l0,0c-0.007-0.001-0.013-0.004-0.02-0.005C272.722,2.259,253.91,0,235.07,0
			C172.273,0,113.239,24.453,68.841,68.854C39.77,97.928,18.774,134.16,8.125,173.632C-2.2,211.899-2.69,252.483,6.707,290.996l0,0
			c0.001,0.004,0.002,0.008,0.003,0.012c10.212,41.638,31.697,79.739,62.132,110.185c28.361,28.36,63.685,49.092,102.155,59.953l0,0
			l0,0c21.066,5.946,42.536,8.843,63.853,8.841c61.541-0.004,121.696-24.16,166.332-68.794
			c30.099-30.099,51.447-67.708,61.738-108.763C472.91,252.575,472.293,210.589,461.135,171.012z M438.434,165.452
			c-32.61,5.104-64.073,15.013-93.681,29.547c-29.403,14.434-56.306,33.089-80.122,55.502l-52.197-52.197
			c21.849-23.213,40.139-49.367,54.419-77.889c14.449-28.861,24.487-59.556,29.93-91.39c34.007,10.23,65.03,28.748,90.256,53.97
			C410.259,106.218,427.866,134.542,438.434,165.452z M235.07,20c14.196,0,28.372,1.401,42.264,4.17
			c-5.051,30.424-14.575,59.748-28.365,87.291c-13.318,26.602-30.339,51.017-50.672,72.706L90.215,76.085
			C129.906,39.842,180.961,20,235.07,20z M27.434,178.841c8.875-32.894,25.634-63.316,48.663-88.59l108.048,108.047
			c-21.708,20.355-46.115,37.4-72.698,50.72c-27.56,13.81-56.875,23.308-87.261,28.319
			C17.699,244.782,18.778,210.924,27.434,178.841z M29.018,296.824c31.809-5.404,62.502-15.45,91.389-29.923
			c28.503-14.282,54.665-32.571,77.897-54.442l52.185,52.185c-22.436,23.835-41.103,50.737-55.538,80.12
			c-14.557,29.631-24.458,61.092-29.524,93.678c-30.907-10.569-59.227-28.174-82.442-51.389
			C57.735,361.793,39.218,330.779,29.018,296.824z M184.791,444.079c9.104-61.639,37.169-119.699,79.849-165.285l115.161,115.161
			C327.243,441.828,254.065,460.664,184.791,444.079z M443.52,287.568c-8.605,34.323-25.666,66.02-49.574,92.249L278.771,264.642
			c45.499-42.588,103.567-70.637,165.295-79.828C452.127,218.549,451.961,253.89,443.52,287.568z"/>
	</g>
</g>
<g>
</g>
<g>
</g>
<g>
</g>
<g>
</g>
<g>
</g>
<g>
</g>
<g>
</g>
<g>
</g>
<g>
</g>
<g>
</g>
<g>
</g>
<g>
</g>
<g>
</g>
<g>
</g>
<g>
</g>
</svg>
